<svg xmlns="http://www.w3.org/2000/svg" xmlns:xlink="http://www.w3.org/1999/xlink" width="530" zoomAndPan="magnify" viewBox="140 332 530 105" height="105" preserveAspectRatio="xMidYMid meet" version="1.0"><defs><g/></defs><g fill="#fe5e00" fill-opacity="1"><g transform="translate(152.465109, 431.496884)"><g><path d="M 55.25 -95.296875 C 62.789062 -95.296875 67.945312 -93.257812 70.71875 -89.1875 C 73.40625 -85.101562 73.753906 -79.335938 71.765625 -71.890625 C 71.503906 -71.023438 71.023438 -70.332031 70.328125 -69.8125 C 69.640625 -69.207031 68.859375 -68.90625 67.984375 -68.90625 L 59.28125 -68.90625 C 58.414062 -68.90625 57.765625 -69.207031 57.328125 -69.8125 C 56.898438 -70.332031 56.8125 -71.023438 57.0625 -71.890625 L 57.328125 -72.796875 C 58.191406 -76.085938 58.191406 -78.472656 57.328125 -79.953125 C 56.378906 -81.335938 54.644531 -82.03125 52.125 -82.03125 C 49.613281 -82.03125 47.492188 -81.335938 45.765625 -79.953125 C 44.023438 -78.472656 42.722656 -76.085938 41.859375 -72.796875 C 41.421875 -71.066406 41.203125 -69.460938 41.203125 -67.984375 C 41.203125 -66.429688 41.507812 -64.875 42.125 -63.3125 C 42.726562 -61.75 43.632812 -60.101562 44.84375 -58.375 C 46.0625 -56.550781 47.664062 -54.597656 49.65625 -52.515625 C 52.175781 -49.828125 54.210938 -47.316406 55.765625 -44.984375 C 57.328125 -42.554688 58.457031 -40.210938 59.15625 -37.953125 C 59.84375 -35.617188 60.144531 -33.28125 60.0625 -30.9375 C 59.976562 -28.601562 59.585938 -26.09375 58.890625 -23.40625 C 56.898438 -15.863281 53.429688 -10.097656 48.484375 -6.109375 C 43.546875 -2.035156 37.265625 0 29.640625 0 C 22.015625 0 16.816406 -2.035156 14.046875 -6.109375 C 11.179688 -10.097656 10.742188 -15.863281 12.734375 -23.40625 L 13.515625 -26.265625 C 13.691406 -27.046875 14.171875 -27.738281 14.953125 -28.34375 C 15.640625 -28.863281 16.375 -29.125 17.15625 -29.125 L 26 -29.125 C 26.78125 -29.125 27.382812 -28.863281 27.8125 -28.34375 C 28.25 -27.738281 28.378906 -27.046875 28.203125 -26.265625 L 27.171875 -22.484375 C 26.210938 -19.191406 26.253906 -16.851562 27.296875 -15.46875 C 28.335938 -14.082031 30.113281 -13.390625 32.625 -13.390625 C 35.144531 -13.390625 37.3125 -14.082031 39.125 -15.46875 C 40.863281 -16.851562 42.207031 -19.191406 43.15625 -22.484375 C 43.59375 -24.128906 43.8125 -25.734375 43.8125 -27.296875 C 43.8125 -28.859375 43.507812 -30.421875 42.90625 -31.984375 C 42.289062 -33.535156 41.378906 -35.222656 40.171875 -37.046875 C 38.867188 -38.785156 37.265625 -40.691406 35.359375 -42.765625 C 32.847656 -45.453125 30.851562 -47.96875 29.375 -50.3125 C 27.820312 -52.644531 26.695312 -54.984375 26 -57.328125 C 25.21875 -59.671875 24.867188 -62.007812 24.953125 -64.34375 C 25.046875 -66.6875 25.4375 -69.203125 26.125 -71.890625 C 28.125 -79.335938 31.59375 -85.101562 36.53125 -89.1875 C 41.382812 -93.257812 47.625 -95.296875 55.25 -95.296875 Z M 55.25 -95.296875 "/></g></g></g><g fill="#fe5e00" fill-opacity="1"><g transform="translate(208.233355, 431.496884)"><g><path d="M 42.640625 0 C 36.660156 0 31.675781 -1.300781 27.6875 -3.90625 C 23.613281 -6.414062 20.625 -10.140625 18.71875 -15.078125 C 15.507812 -23.566406 15.679688 -34.398438 19.234375 -47.578125 C 20.972656 -54.078125 23.269531 -60.101562 26.125 -65.65625 C 28.988281 -71.113281 32.328125 -75.921875 36.140625 -80.078125 C 40.734375 -85.109375 45.71875 -88.921875 51.09375 -91.515625 C 56.46875 -94.035156 62.144531 -95.296875 68.125 -95.296875 C 80.082031 -95.296875 88.054688 -90.222656 92.046875 -80.078125 C 93.597656 -75.921875 94.332031 -71.113281 94.25 -65.65625 C 94.164062 -60.101562 93.253906 -54.078125 91.515625 -47.578125 C 87.960938 -34.398438 82.332031 -23.566406 74.625 -15.078125 C 65.257812 -5.023438 54.597656 0 42.640625 0 Z M 64.21875 -80.59375 C 60.925781 -80.59375 57.9375 -79.988281 55.25 -78.78125 C 52.5625 -77.476562 50.175781 -75.832031 48.09375 -73.84375 C 45.925781 -71.757812 44.066406 -69.503906 42.515625 -67.078125 C 40.867188 -64.566406 39.476562 -62.097656 38.34375 -59.671875 C 37.132812 -57.160156 36.179688 -54.863281 35.484375 -52.78125 C 34.796875 -50.613281 34.28125 -48.878906 33.9375 -47.578125 C 33.582031 -46.273438 33.191406 -44.585938 32.765625 -42.515625 C 32.328125 -40.347656 32.019531 -38.050781 31.84375 -35.625 C 31.675781 -33.195312 31.722656 -30.769531 31.984375 -28.34375 C 32.242188 -25.820312 32.894531 -23.566406 33.9375 -21.578125 C 34.96875 -19.492188 36.523438 -17.847656 38.609375 -16.640625 C 40.597656 -15.335938 43.242188 -14.6875 46.546875 -14.6875 C 49.835938 -14.6875 52.828125 -15.335938 55.515625 -16.640625 C 58.203125 -17.847656 60.628906 -19.492188 62.796875 -21.578125 C 64.867188 -23.566406 66.726562 -25.820312 68.375 -28.34375 C 69.9375 -30.769531 71.328125 -33.195312 72.546875 -35.625 C 73.671875 -38.050781 74.578125 -40.347656 75.265625 -42.515625 C 75.960938 -44.585938 76.484375 -46.273438 76.828125 -47.578125 C 77.171875 -48.878906 77.5625 -50.613281 78 -52.78125 C 78.4375 -54.863281 78.738281 -57.160156 78.90625 -59.671875 C 79.082031 -62.097656 79.039062 -64.566406 78.78125 -67.078125 C 78.519531 -69.503906 77.867188 -71.757812 76.828125 -73.84375 C 75.785156 -75.832031 74.269531 -77.476562 72.28125 -78.78125 C 70.195312 -79.988281 67.507812 -80.59375 64.21875 -80.59375 Z M 64.21875 -80.59375 "/></g></g></g><g fill="#fe5e00" fill-opacity="1"><g transform="translate(290.13082, 431.496884)"><g><path d="M 83.59375 -95.296875 C 84.632812 -95.296875 85.414062 -94.945312 85.9375 -94.25 C 86.445312 -93.46875 86.570312 -92.554688 86.3125 -91.515625 L 69.296875 -27.6875 C 68.253906 -23.875 66.5625 -20.28125 64.21875 -16.90625 C 61.875 -13.519531 59.144531 -10.570312 56.03125 -8.0625 C 52.820312 -5.550781 49.351562 -3.597656 45.625 -2.203125 C 41.8125 -0.734375 38 0 34.1875 0 C 30.375 0 26.992188 -0.734375 24.046875 -2.203125 C 21.015625 -3.679688 18.585938 -5.675781 16.765625 -8.1875 C 14.953125 -10.695312 13.785156 -13.644531 13.265625 -17.03125 C 12.648438 -20.320312 12.863281 -23.875 13.90625 -27.6875 L 30.9375 -91.515625 C 31.195312 -92.554688 31.804688 -93.46875 32.765625 -94.25 C 33.710938 -94.945312 34.707031 -95.296875 35.75 -95.296875 L 42.765625 -95.296875 C 43.890625 -95.296875 44.710938 -94.945312 45.234375 -94.25 C 45.753906 -93.46875 45.882812 -92.554688 45.625 -91.515625 L 28.59375 -28.078125 C 27.644531 -24.347656 28.125 -21.1875 30.03125 -18.59375 C 31.9375 -15.988281 34.753906 -14.6875 38.484375 -14.6875 C 40.210938 -14.6875 41.945312 -15.035156 43.6875 -15.734375 C 45.414062 -16.335938 47.015625 -17.203125 48.484375 -18.328125 C 49.867188 -19.453125 51.082031 -20.796875 52.125 -22.359375 C 53.164062 -23.921875 53.945312 -25.566406 54.46875 -27.296875 L 71.625 -91.515625 C 71.882812 -92.554688 72.535156 -93.46875 73.578125 -94.25 C 74.535156 -94.945312 75.53125 -95.296875 76.5625 -95.296875 Z M 83.59375 -95.296875 "/></g></g></g><g fill="#fe5e00" fill-opacity="1"><g transform="translate(355.128795, 431.496884)"><g><path d="M 99.3125 -80.59375 C 101.3125 -76.351562 102.394531 -71.457031 102.5625 -65.90625 C 102.65625 -60.363281 101.832031 -54.296875 100.09375 -47.703125 C 98.363281 -41.035156 95.9375 -34.925781 92.8125 -29.375 C 89.613281 -23.832031 85.890625 -18.976562 81.640625 -14.8125 C 79.910156 -13 78.09375 -11.398438 76.1875 -10.015625 C 74.1875 -8.535156 72.101562 -7.191406 69.9375 -5.984375 C 69.070312 -5.546875 68.378906 -4.894531 67.859375 -4.03125 C 67.335938 -3.164062 67.117188 -2.300781 67.203125 -1.4375 L 67.734375 4.03125 C 67.898438 4.976562 67.640625 5.929688 66.953125 6.890625 C 66.253906 7.835938 65.34375 8.488281 64.21875 8.84375 L 56.9375 11.3125 C 55.894531 11.65625 54.984375 11.613281 54.203125 11.1875 C 53.335938 10.75 52.820312 10.007812 52.65625 8.96875 L 52 2.46875 C 51.820312 0.738281 50.828125 -0.125 49.015625 -0.125 C 48.660156 -0.0390625 48.3125 0 47.96875 0 L 46.9375 0 C 40.4375 0 34.890625 -1.253906 30.296875 -3.765625 C 25.703125 -6.191406 22.234375 -9.875 19.890625 -14.8125 C 17.898438 -18.976562 16.859375 -23.832031 16.765625 -29.375 C 16.679688 -34.925781 17.503906 -41.035156 19.234375 -47.703125 C 20.972656 -54.296875 23.398438 -60.363281 26.515625 -65.90625 C 29.546875 -71.457031 33.226562 -76.351562 37.5625 -80.59375 C 42.507812 -85.445312 47.925781 -89.132812 53.8125 -91.65625 C 59.707031 -94.082031 65.90625 -95.296875 72.40625 -95.296875 C 85.582031 -95.296875 94.550781 -90.394531 99.3125 -80.59375 Z M 65 -23.65625 C 65.175781 -22.269531 65.910156 -21.445312 67.203125 -21.1875 C 68.503906 -20.925781 69.804688 -21.316406 71.109375 -22.359375 C 73.878906 -24.867188 76.523438 -28.160156 79.046875 -32.234375 C 81.554688 -36.222656 83.675781 -41.378906 85.40625 -47.703125 C 86.707031 -52.648438 87.398438 -56.898438 87.484375 -60.453125 C 87.484375 -64.003906 87.09375 -66.992188 86.3125 -69.421875 C 85.445312 -71.847656 84.28125 -73.796875 82.8125 -75.265625 C 81.332031 -76.742188 79.769531 -77.875 78.125 -78.65625 C 76.394531 -79.425781 74.707031 -79.941406 73.0625 -80.203125 C 71.320312 -80.460938 69.804688 -80.59375 68.515625 -80.59375 C 66.515625 -80.59375 64 -80.289062 60.96875 -79.6875 C 57.851562 -79 54.644531 -77.523438 51.34375 -75.265625 C 47.96875 -73.015625 44.71875 -69.722656 41.59375 -65.390625 C 38.476562 -60.972656 35.925781 -55.078125 33.9375 -47.703125 C 32.457031 -42.078125 31.757812 -37.359375 31.84375 -33.546875 C 31.9375 -29.722656 32.546875 -26.601562 33.671875 -24.1875 C 34.796875 -21.664062 36.269531 -19.753906 38.09375 -18.453125 C 39.90625 -17.160156 41.8125 -16.207031 43.8125 -15.59375 C 44.5 -15.425781 45.234375 -15.472656 46.015625 -15.734375 C 46.710938 -15.898438 47.363281 -16.242188 47.96875 -16.765625 C 48.488281 -17.203125 48.921875 -17.765625 49.265625 -18.453125 C 49.617188 -19.148438 49.75 -19.890625 49.65625 -20.671875 L 49.53125 -22.234375 C 49.351562 -23.179688 49.65625 -24.132812 50.4375 -25.09375 C 51.132812 -26.039062 52.046875 -26.734375 53.171875 -27.171875 L 60.3125 -29.515625 C 61.445312 -29.941406 62.445312 -29.941406 63.3125 -29.515625 C 64.09375 -28.992188 64.566406 -28.253906 64.734375 -27.296875 Z M 65 -23.65625 "/></g></g></g><g fill="#0163d2" fill-opacity="1"><g transform="translate(445.609629, 431.496884)"><g><path d="M 42.640625 0 C 36.660156 0 31.675781 -1.300781 27.6875 -3.90625 C 23.613281 -6.414062 20.625 -10.140625 18.71875 -15.078125 C 15.507812 -23.566406 15.679688 -34.398438 19.234375 -47.578125 C 20.972656 -54.078125 23.269531 -60.101562 26.125 -65.65625 C 28.988281 -71.113281 32.328125 -75.921875 36.140625 -80.078125 C 40.734375 -85.109375 45.71875 -88.921875 51.09375 -91.515625 C 56.46875 -94.035156 62.144531 -95.296875 68.125 -95.296875 C 80.082031 -95.296875 88.054688 -90.222656 92.046875 -80.078125 C 93.597656 -75.921875 94.332031 -71.113281 94.25 -65.65625 C 94.164062 -60.101562 93.253906 -54.078125 91.515625 -47.578125 C 87.960938 -34.398438 82.332031 -23.566406 74.625 -15.078125 C 65.257812 -5.023438 54.597656 0 42.640625 0 Z M 64.21875 -80.59375 C 60.925781 -80.59375 57.9375 -79.988281 55.25 -78.78125 C 52.5625 -77.476562 50.175781 -75.832031 48.09375 -73.84375 C 45.925781 -71.757812 44.066406 -69.503906 42.515625 -67.078125 C 40.867188 -64.566406 39.476562 -62.097656 38.34375 -59.671875 C 37.132812 -57.160156 36.179688 -54.863281 35.484375 -52.78125 C 34.796875 -50.613281 34.28125 -48.878906 33.9375 -47.578125 C 33.582031 -46.273438 33.191406 -44.585938 32.765625 -42.515625 C 32.328125 -40.347656 32.019531 -38.050781 31.84375 -35.625 C 31.675781 -33.195312 31.722656 -30.769531 31.984375 -28.34375 C 32.242188 -25.820312 32.894531 -23.566406 33.9375 -21.578125 C 34.96875 -19.492188 36.523438 -17.847656 38.609375 -16.640625 C 40.597656 -15.335938 43.242188 -14.6875 46.546875 -14.6875 C 49.835938 -14.6875 52.828125 -15.335938 55.515625 -16.640625 C 58.203125 -17.847656 60.628906 -19.492188 62.796875 -21.578125 C 64.867188 -23.566406 66.726562 -25.820312 68.375 -28.34375 C 69.9375 -30.769531 71.328125 -33.195312 72.546875 -35.625 C 73.671875 -38.050781 74.578125 -40.347656 75.265625 -42.515625 C 75.960938 -44.585938 76.484375 -46.273438 76.828125 -47.578125 C 77.171875 -48.878906 77.5625 -50.613281 78 -52.78125 C 78.4375 -54.863281 78.738281 -57.160156 78.90625 -59.671875 C 79.082031 -62.097656 79.039062 -64.566406 78.78125 -67.078125 C 78.519531 -69.503906 77.867188 -71.757812 76.828125 -73.84375 C 75.785156 -75.832031 74.269531 -77.476562 72.28125 -78.78125 C 70.195312 -79.988281 67.507812 -80.59375 64.21875 -80.59375 Z M 64.21875 -80.59375 "/></g></g></g><g fill="#0163d2" fill-opacity="1"><g transform="translate(527.507094, 431.496884)"><g><path d="M 88.796875 -95.296875 C 89.828125 -95.296875 90.601562 -94.945312 91.125 -94.25 C 91.644531 -93.46875 91.773438 -92.554688 91.515625 -91.515625 L 67.984375 -3.765625 C 67.722656 -2.722656 67.160156 -1.859375 66.296875 -1.171875 C 65.253906 -0.390625 64.257812 0 63.3125 0 L 53.296875 0 C 51.648438 0 50.695312 -0.734375 50.4375 -2.203125 L 39.390625 -57.84375 C 39.210938 -58.539062 38.734375 -58.800781 37.953125 -58.625 C 37.179688 -58.539062 36.664062 -58.066406 36.40625 -57.203125 L 22.09375 -3.765625 C 21.832031 -2.722656 21.269531 -1.859375 20.40625 -1.171875 C 19.457031 -0.390625 18.421875 0 17.296875 0 L 10.265625 0 C 9.222656 0 8.445312 -0.390625 7.9375 -1.171875 C 7.320312 -1.859375 7.144531 -2.722656 7.40625 -3.765625 L 30.9375 -91.515625 C 31.195312 -92.554688 31.804688 -93.46875 32.765625 -94.25 C 33.710938 -94.945312 34.707031 -95.296875 35.75 -95.296875 L 45.765625 -95.296875 C 47.410156 -95.296875 48.316406 -94.554688 48.484375 -93.078125 L 59.671875 -37.4375 C 59.671875 -36.75 60.144531 -36.488281 61.09375 -36.65625 C 61.789062 -36.832031 62.269531 -37.3125 62.53125 -38.09375 L 76.828125 -91.515625 C 77.085938 -92.554688 77.738281 -93.46875 78.78125 -94.25 C 79.726562 -94.945312 80.722656 -95.296875 81.765625 -95.296875 Z M 88.796875 -95.296875 "/></g></g></g><g fill="#0163d2" fill-opacity="1"><g transform="translate(597.704909, 431.496884)"><g><path d="M 75.796875 -84.375 C 75.535156 -83.332031 74.96875 -82.460938 74.09375 -81.765625 C 73.144531 -80.984375 72.148438 -80.59375 71.109375 -80.59375 L 46.546875 -80.59375 C 45.503906 -80.59375 44.503906 -80.25 43.546875 -79.5625 C 42.597656 -78.78125 41.992188 -77.867188 41.734375 -76.828125 L 39.65625 -69.03125 C 39.300781 -67.988281 39.429688 -67.125 40.046875 -66.4375 C 40.554688 -65.65625 41.332031 -65.265625 42.375 -65.265625 L 58.625 -65.265625 C 59.75 -65.265625 60.617188 -64.914062 61.234375 -64.21875 C 61.753906 -63.4375 61.835938 -62.523438 61.484375 -61.484375 L 59.671875 -54.46875 C 59.328125 -53.425781 58.71875 -52.515625 57.84375 -51.734375 C 56.894531 -50.953125 55.859375 -50.5625 54.734375 -50.5625 L 38.484375 -50.5625 C 37.441406 -50.5625 36.441406 -50.21875 35.484375 -49.53125 C 34.535156 -48.75 33.929688 -47.835938 33.671875 -46.796875 L 26.125 -18.453125 C 25.78125 -17.421875 25.910156 -16.554688 26.515625 -15.859375 C 27.035156 -15.078125 27.816406 -14.6875 28.859375 -14.6875 L 53.4375 -14.6875 C 54.46875 -14.6875 55.242188 -14.34375 55.765625 -13.65625 C 56.285156 -12.875 56.414062 -11.960938 56.15625 -10.921875 L 54.203125 -3.765625 C 53.941406 -2.722656 53.378906 -1.859375 52.515625 -1.171875 C 51.566406 -0.390625 50.570312 0 49.53125 0 L 10.265625 0 C 9.222656 0 8.445312 -0.390625 7.9375 -1.171875 C 7.320312 -1.859375 7.144531 -2.722656 7.40625 -3.765625 L 30.9375 -91.515625 C 31.195312 -92.554688 31.804688 -93.46875 32.765625 -94.25 C 33.710938 -94.945312 34.707031 -95.296875 35.75 -95.296875 L 75.015625 -95.296875 C 76.046875 -95.296875 76.820312 -94.945312 77.34375 -94.25 C 77.863281 -93.46875 77.992188 -92.554688 77.734375 -91.515625 Z M 75.796875 -84.375 "/></g></g></g></svg>