<svg xmlns="http://www.w3.org/2000/svg" xmlns:xlink="http://www.w3.org/1999/xlink" width="530" zoomAndPan="magnify" viewBox="140 332 530 105" height="105" preserveAspectRatio="xMidYMid meet" version="1.0"><defs><g/></defs><g fill="#fe5e00" fill-opacity="1"><g transform="translate(152.465109, 431.496795)"><g><path d="M 55.25 -95.296875 C 62.789062 -95.296875 67.945312 -93.257812 70.71875 -89.1875 C 73.40625 -85.101562 73.753906 -79.335938 71.765625 -71.890625 C 71.503906 -71.023438 71.023438 -70.332031 70.328125 -69.8125 C 69.640625 -69.207031 68.859375 -68.90625 67.984375 -68.90625 L 59.28125 -68.90625 C 58.414062 -68.90625 57.765625 -69.207031 57.328125 -69.8125 C 56.898438 -70.332031 56.8125 -71.023438 57.0625 -71.890625 L 57.328125 -72.796875 C 58.191406 -76.085938 58.191406 -78.472656 57.328125 -79.953125 C 56.378906 -81.335938 54.644531 -82.03125 52.125 -82.03125 C 49.613281 -82.03125 47.492188 -81.335938 45.765625 -79.953125 C 44.023438 -78.472656 42.722656 -76.085938 41.859375 -72.796875 C 41.421875 -71.066406 41.203125 -69.460938 41.203125 -67.984375 C 41.203125 -66.429688 41.507812 -64.875 42.125 -63.3125 C 42.726562 -61.75 43.632812 -60.101562 44.84375 -58.375 C 46.0625 -56.550781 47.664062 -54.597656 49.65625 -52.515625 C 52.175781 -49.828125 54.210938 -47.316406 55.765625 -44.984375 C 57.328125 -42.554688 58.457031 -40.210938 59.15625 -37.953125 C 59.84375 -35.617188 60.144531 -33.28125 60.0625 -30.9375 C 59.976562 -28.601562 59.585938 -26.09375 58.890625 -23.40625 C 56.898438 -15.863281 53.429688 -10.097656 48.484375 -6.109375 C 43.546875 -2.035156 37.265625 0 29.640625 0 C 22.015625 0 16.816406 -2.035156 14.046875 -6.109375 C 11.179688 -10.097656 10.742188 -15.863281 12.734375 -23.40625 L 13.515625 -26.265625 C 13.691406 -27.046875 14.171875 -27.738281 14.953125 -28.34375 C 15.640625 -28.863281 16.375 -29.125 17.15625 -29.125 L 26 -29.125 C 26.78125 -29.125 27.382812 -28.863281 27.8125 -28.34375 C 28.25 -27.738281 28.378906 -27.046875 28.203125 -26.265625 L 27.171875 -22.484375 C 26.210938 -19.191406 26.253906 -16.851562 27.296875 -15.46875 C 28.335938 -14.082031 30.113281 -13.390625 32.625 -13.390625 C 35.144531 -13.390625 37.3125 -14.082031 39.125 -15.46875 C 40.863281 -16.851562 42.207031 -19.191406 43.15625 -22.484375 C 43.59375 -24.128906 43.8125 -25.734375 43.8125 -27.296875 C 43.8125 -28.859375 43.507812 -30.421875 42.90625 -31.984375 C 42.289062 -33.535156 41.378906 -35.222656 40.171875 -37.046875 C 38.867188 -38.785156 37.265625 -40.691406 35.359375 -42.765625 C 32.847656 -45.453125 30.851562 -47.96875 29.375 -50.3125 C 27.820312 -52.644531 26.695312 -54.984375 26 -57.328125 C 25.21875 -59.671875 24.867188 -62.007812 24.953125 -64.34375 C 25.046875 -66.6875 25.4375 -69.203125 26.125 -71.890625 C 28.125 -79.335938 31.59375 -85.101562 36.53125 -89.1875 C 41.382812 -93.257812 47.625 -95.296875 55.25 -95.296875 Z M 55.25 -95.296875 "/></g></g></g><g fill="#fe5e00" fill-opacity="1"><g transform="translate(208.233355, 431.496795)"><g><path d="M 42.640625 0 C 36.660156 0 31.675781 -1.300781 27.6875 -3.90625 C 23.613281 -6.414062 20.625 -10.140625 18.71875 -15.078125 C 15.507812 -23.566406 15.679688 -34.398438 19.234375 -47.578125 C 20.972656 -54.078125 23.269531 -60.101562 26.125 -65.65625 C 28.988281 -71.113281 32.328125 -75.921875 36.140625 -80.078125 C 40.734375 -85.109375 45.71875 -88.921875 51.09375 -91.515625 C 56.46875 -94.035156 62.144531 -95.296875 68.125 -95.296875 C 80.082031 -95.296875 88.054688 -90.222656 92.046875 -80.078125 C 93.597656 -75.921875 94.332031 -71.113281 94.25 -65.65625 C 94.164062 -60.101562 93.253906 -54.078125 91.515625 -47.578125 C 87.960938 -34.398438 82.332031 -23.566406 74.625 -15.078125 C 65.257812 -5.023438 54.597656 0 42.640625 0 Z M 64.21875 -80.59375 C 60.925781 -80.59375 57.9375 -79.988281 55.25 -78.78125 C 52.5625 -77.476562 50.175781 -75.832031 48.09375 -73.84375 C 45.925781 -71.757812 44.066406 -69.503906 42.515625 -67.078125 C 40.867188 -64.566406 39.476562 -62.097656 38.34375 -59.671875 C 37.132812 -57.160156 36.179688 -54.863281 35.484375 -52.78125 C 34.796875 -50.613281 34.28125 -48.878906 33.9375 -47.578125 C 33.582031 -46.273438 33.191406 -44.585938 32.765625 -42.515625 C 32.328125 -40.347656 32.019531 -38.050781 31.84375 -35.625 C 31.675781 -33.195312 31.722656 -30.769531 31.984375 -28.34375 C 32.242188 -25.820312 32.894531 -23.566406 33.9375 -21.578125 C 34.96875 -19.492188 36.523438 -17.847656 38.609375 -16.640625 C 40.597656 -15.335938 43.242188 -14.6875 46.546875 -14.6875 C 49.835938 -14.6875 52.828125 -15.335938 55.515625 -16.640625 C 58.203125 -17.847656 60.628906 -19.492188 62.796875 -21.578125 C 64.867188 -23.566406 66.726562 -25.820312 68.375 -28.34375 C 69.9375 -30.769531 71.328125 -33.195312 72.546875 -35.625 C 73.671875 -38.050781 74.578125 -40.347656 75.265625 -42.515625 C 75.960938 -44.585938 76.484375 -46.273438 76.828125 -47.578125 C 77.171875 -48.878906 77.5625 -50.613281 78 -52.78125 C 78.4375 -54.863281 78.738281 -57.160156 78.90625 -59.671875 C 79.082031 -62.097656 79.039062 -64.566406 78.78125 -67.078125 C 78.519531 -69.503906 77.867188 -71.757812 76.828125 -73.84375 C 75.785156 -75.832031 74.269531 -77.476562 72.28125 -78.78125 C 70.195312 -79.988281 67.507812 -80.59375 64.21875 -80.59375 Z M 64.21875 -80.59375 "/></g></g></g><g fill="#fe5e00" fill-opacity="1"><g transform="translate(290.13082, 431.496795)"><g><path d="M 83.59375 -95.296875 C 84.632812 -95.296875 85.414062 -94.945312 85.9375 -94.25 C 86.445312 -93.46875 86.570312 -92.554688 86.3125 -91.515625 L 69.296875 -27.6875 C 68.253906 -23.875 66.5625 -20.28125 64.21875 -16.90625 C 61.875 -13.519531 59.144531 -10.570312 56.03125 -8.0625 C 52.820312 -5.550781 49.351562 -3.597656 45.625 -2.203125 C 41.8125 -0.734375 38 0 34.1875 0 C 30.375 0 26.992188 -0.734375 24.046875 -2.203125 C 21.015625 -3.679688 18.585938 -5.675781 16.765625 -8.1875 C 14.953125 -10.695312 13.785156 -13.644531 13.265625 -17.03125 C 12.648438 -20.320312 12.863281 -23.875 13.90625 -27.6875 L 30.9375 -91.515625 C 31.195312 -92.554688 31.804688 -93.46875 32.765625 -94.25 C 33.710938 -94.945312 34.707031 -95.296875 35.75 -95.296875 L 42.765625 -95.296875 C 43.890625 -95.296875 44.710938 -94.945312 45.234375 -94.25 C 45.753906 -93.46875 45.882812 -92.554688 45.625 -91.515625 L 28.59375 -28.078125 C 27.644531 -24.347656 28.125 -21.1875 30.03125 -18.59375 C 31.9375 -15.988281 34.753906 -14.6875 38.484375 -14.6875 C 40.210938 -14.6875 41.945312 -15.035156 43.6875 -15.734375 C 45.414062 -16.335938 47.015625 -17.203125 48.484375 -18.328125 C 49.867188 -19.453125 51.082031 -20.796875 52.125 -22.359375 C 53.164062 -23.921875 53.945312 -25.566406 54.46875 -27.296875 L 71.625 -91.515625 C 71.882812 -92.554688 72.535156 -93.46875 73.578125 -94.25 C 74.535156 -94.945312 75.53125 -95.296875 76.5625 -95.296875 Z M 83.59375 -95.296875 "/></g></g></g><g fill="#fe5e00" fill-opacity="1"><g transform="translate(355.128795, 431.496795)"><g><path d="M 99.3125 -80.59375 C 101.3125 -76.351562 102.394531 -71.457031 102.5625 -65.90625 C 102.65625 -60.363281 101.832031 -54.296875 100.09375 -47.703125 C 98.363281 -41.035156 95.9375 -34.925781 92.8125 -29.375 C 89.613281 -23.832031 85.890625 -18.976562 81.640625 -14.8125 C 79.910156 -13 78.09375 -11.398438 76.1875 -10.015625 C 74.1875 -8.535156 72.101562 -7.191406 69.9375 -5.984375 C 69.070312 -5.546875 68.378906 -4.894531 67.859375 -4.03125 C 67.335938 -3.164062 67.117188 -2.300781 67.203125 -1.4375 L 67.734375 4.03125 C 67.898438 4.976562 67.640625 5.929688 66.953125 6.890625 C 66.253906 7.835938 65.34375 8.488281 64.21875 8.84375 L 56.9375 11.3125 C 55.894531 11.65625 54.984375 11.613281 54.203125 11.1875 C 53.335938 10.75 52.820312 10.007812 52.65625 8.96875 L 52 2.46875 C 51.820312 0.738281 50.828125 -0.125 49.015625 -0.125 C 48.660156 -0.0390625 48.3125 0 47.96875 0 L 46.9375 0 C 40.4375 0 34.890625 -1.253906 30.296875 -3.765625 C 25.703125 -6.191406 22.234375 -9.875 19.890625 -14.8125 C 17.898438 -18.976562 16.859375 -23.832031 16.765625 -29.375 C 16.679688 -34.925781 17.503906 -41.035156 19.234375 -47.703125 C 20.972656 -54.296875 23.398438 -60.363281 26.515625 -65.90625 C 29.546875 -71.457031 33.226562 -76.351562 37.5625 -80.59375 C 42.507812 -85.445312 47.925781 -89.132812 53.8125 -91.65625 C 59.707031 -94.082031 65.90625 -95.296875 72.40625 -95.296875 C 85.582031 -95.296875 94.550781 -90.394531 99.3125 -80.59375 Z M 65 -23.65625 C 65.175781 -22.269531 65.910156 -21.445312 67.203125 -21.1875 C 68.503906 -20.925781 69.804688 -21.316406 71.109375 -22.359375 C 73.878906 -24.867188 76.523438 -28.160156 79.046875 -32.234375 C 81.554688 -36.222656 83.675781 -41.378906 85.40625 -47.703125 C 86.707031 -52.648438 87.398438 -56.898438 87.484375 -60.453125 C 87.484375 -64.003906 87.09375 -66.992188 86.3125 -69.421875 C 85.445312 -71.847656 84.28125 -73.796875 82.8125 -75.265625 C 81.332031 -76.742188 79.769531 -77.875 78.125 -78.65625 C 76.394531 -79.425781 74.707031 -79.941406 73.0625 -80.203125 C 71.320312 -80.460938 69.804688 -80.59375 68.515625 -80.59375 C 66.515625 -80.59375 64 -80.289062 60.96875 -79.6875 C 57.851562 -79 54.644531 -77.523438 51.34375 -75.265625 C 47.96875 -73.015625 44.71875 -69.722656 41.59375 -65.390625 C 38.476562 -60.972656 35.925781 -55.078125 33.9375 -47.703125 C 32.457031 -42.078125 31.757812 -37.359375 31.84375 -33.546875 C 31.9375 -29.722656 32.546875 -26.601562 33.671875 -24.1875 C 34.796875 -21.664062 36.269531 -19.753906 38.09375 -18.453125 C 39.90625 -17.160156 41.8125 -16.207031 43.8125 -15.59375 C 44.5 -15.425781 45.234375 -15.472656 46.015625 -15.734375 C 46.710938 -15.898438 47.363281 -16.242188 47.96875 -16.765625 C 48.488281 -17.203125 48.921875 -17.765625 49.265625 -18.453125 C 49.617188 -19.148438 49.75 -19.890625 49.65625 -20.671875 L 49.53125 -22.234375 C 49.351562 -23.179688 49.65625 -24.132812 50.4375 -25.09375 C 51.132812 -26.039062 52.046875 -26.734375 53.171875 -27.171875 L 60.3125 -29.515625 C 61.445312 -29.941406 62.445312 -29.941406 63.3125 -29.515625 C 64.09375 -28.992188 64.566406 -28.253906 64.734375 -27.296875 Z M 65 -23.65625 "/></g></g></g><g fill="#ffffff" fill-opacity="1"><g transform="translate(445.609629, 431.496795)"><g><path d="M 42.640625 0 C 36.660156 0 31.675781 -1.300781 27.6875 -3.90625 C 23.613281 -6.414062 20.625 -10.140625 18.71875 -15.078125 C 15.507812 -23.566406 15.679688 -34.398438 19.234375 -47.578125 C 20.972656 -54.078125 23.269531 -60.101562 26.125 -65.65625 C 28.988281 -71.113281 32.328125 -75.921875 36.140625 -80.078125 C 40.734375 -85.109375 45.71875 -88.921875 51.09375 -91.515625 C 56.46875 -94.035156 62.144531 -95.296875 68.125 -95.296875 C 80.082031 -95.296875 88.054688 -90.222656 92.046875 -80.078125 C 93.597656 -75.921875 94.332031 -71.113281 94.25 -65.65625 C 94.164062 -60.101562 93.253906 -54.078125 91.515625 -47.578125 C 87.960938 -34.398438 82.332031 -23.566406 74.625 -15.078125 C 65.257812 -5.023438 54.597656 0 42.640625 0 Z M 64.21875 -80.59375 C 60.925781 -80.59375 57.9375 -79.988281 55.25 -78.78125 C 52.5625 -77.476562 50.175781 -75.832031 48.09375 -73.84375 C 45.925781 -71.757812 44.066406 -69.503906 42.515625 -67.078125 C 40.867188 -64.566406 39.476562 -62.097656 38.34375 -59.671875 C 37.132812 -57.160156 36.179688 -54.863281 35.484375 -52.78125 C 34.796875 -50.613281 34.28125 -48.878906 33.9375 -47.578125 C 33.582031 -46.273438 33.191406 -44.585938 32.765625 -42.515625 C 32.328125 -40.347656 32.019531 -38.050781 31.84375 -35.625 C 31.675781 -33.195312 31.722656 -30.769531 31.984375 -28.34375 C 32.242188 -25.820312 32.894531 -23.566406 33.9375 -21.578125 C 34.96875 -19.492188 36.523438 -17.847656 38.609375 -16.640625 C 40.597656 -15.335938 43.242188 -14.6875 46.546875 -14.6875 C 49.835938 -14.6875 52.828125 -15.335938 55.515625 -16.640625 C 58.203125 -17.847656 60.628906 -19.492188 62.796875 -21.578125 C 64.867188 -23.566406 66.726562 -25.820312 68.375 -28.34375 C 69.9375 -30.769531 71.328125 -33.195312 72.546875 -35.625 C 73.671875 -38.050781 74.578125 -40.347656 75.265625 -42.515625 C 75.960938 -44.585938 76.484375 -46.273438 76.828125 -47.578125 C 77.171875 -48.878906 77.5625 -50.613281 78 -52.78125 C 78.4375 -54.863281 78.738281 -57.160156 78.90625 -59.671875 C 79.082031 -62.097656 79.039062 -64.566406 78.78125 -67.078125 C 78.519531 -69.503906 77.867188 -71.757812 76.828125 -73.84375 C 75.785156 -75.832031 74.269531 -77.476562 72.28125 -78.78125 C 70.195312 -79.988281 67.507812 -80.59375 64.21875 -80.59375 Z M 64.21875 -80.59375 "/></g></g></g><g fill="#ffffff" fill-opacity="1"><g transform="translate(527.507094, 431.496795)"><g><path d="M 88.796875 -95.296875 C 89.828125 -95.296875 90.601562 -94.945312 91.125 -94.25 C 91.644531 -93.46875 91.773438 -92.554688 91.515625 -91.515625 L 67.984375 -3.765625 C 67.722656 -2.722656 67.160156 -1.859375 66.296875 -1.171875 C 65.253906 -0.390625 64.257812 0 63.3125 0 L 53.296875 0 C 51.648438 0 50.695312 -0.734375 50.4375 -2.203125 L 39.390625 -57.84375 C 39.210938 -58.539062 38.734375 -58.800781 37.953125 -58.625 C 37.179688 -58.539062 36.664062 -58.066406 36.40625 -57.203125 L 22.09375 -3.765625 C 21.832031 -2.722656 21.269531 -1.859375 20.40625 -1.171875 C 19.457031 -0.390625 18.421875 0 17.296875 0 L 10.265625 0 C 9.222656 0 8.445312 -0.390625 7.9375 -1.171875 C 7.320312 -1.859375 7.144531 -2.722656 7.40625 -3.765625 L 30.9375 -91.515625 C 31.195312 -92.554688 31.804688 -93.46875 32.765625 -94.25 C 33.710938 -94.945312 34.707031 -95.296875 35.75 -95.296875 L 45.765625 -95.296875 C 47.410156 -95.296875 48.316406 -94.554688 48.484375 -93.078125 L 59.671875 -37.4375 C 59.671875 -36.75 60.144531 -36.488281 61.09375 -36.65625 C 61.789062 -36.832031 62.269531 -37.3125 62.53125 -38.09375 L 76.828125 -91.515625 C 77.085938 -92.554688 77.738281 -93.46875 78.78125 -94.25 C 79.726562 -94.945312 80.722656 -95.296875 81.765625 -95.296875 Z M 88.796875 -95.296875 "/></g></g></g><g fill="#ffffff" fill-opacity="1"><g transform="translate(597.704909, 431.496795)"><g><path d="M 75.796875 -84.375 C 75.535156 -83.332031 74.96875 -82.460938 74.09375 -81.765625 C 73.144531 -80.984375 72.148438 -80.59375 71.109375 -80.59375 L 46.546875 -80.59375 C 45.503906 -80.59375 44.503906 -80.25 43.546875 -79.5625 C 42.597656 -78.78125 41.992188 -77.867188 41.734375 -76.828125 L 39.65625 -69.03125 C 39.300781 -67.988281 39.429688 -67.125 40.046875 -66.4375 C 40.554688 -65.65625 41.332031 -65.265625 42.375 -65.265625 L 58.625 -65.265625 C 59.75 -65.265625 60.617188 -64.914062 61.234375 -64.21875 C 61.753906 -63.4375 61.835938 -62.523438 61.484375 -61.484375 L 59.671875 -54.46875 C 59.328125 -53.425781 58.71875 -52.515625 57.84375 -51.734375 C 56.894531 -50.953125 55.859375 -50.5625 54.734375 -50.5625 L 38.484375 -50.5625 C 37.441406 -50.5625 36.441406 -50.21875 35.484375 -49.53125 C 34.535156 -48.75 33.929688 -47.835938 33.671875 -46.796875 L 26.125 -18.453125 C 25.78125 -17.421875 25.910156 -16.554688 26.515625 -15.859375 C 27.035156 -15.078125 27.816406 -14.6875 28.859375 -14.6875 L 53.4375 -14.6875 C 54.46875 -14.6875 55.242188 -14.34375 55.765625 -13.65625 C 56.285156 -12.875 56.414062 -11.960938 56.15625 -10.921875 L 54.203125 -3.765625 C 53.941406 -2.722656 53.378906 -1.859375 52.515625 -1.171875 C 51.566406 -0.390625 50.570312 0 49.53125 0 L 10.265625 0 C 9.222656 0 8.445312 -0.390625 7.9375 -1.171875 C 7.320312 -1.859375 7.144531 -2.722656 7.40625 -3.765625 L 30.9375 -91.515625 C 31.195312 -92.554688 31.804688 -93.46875 32.765625 -94.25 C 33.710938 -94.945312 34.707031 -95.296875 35.75 -95.296875 L 75.015625 -95.296875 C 76.046875 -95.296875 76.820312 -94.945312 77.34375 -94.25 C 77.863281 -93.46875 77.992188 -92.554688 77.734375 -91.515625 Z M 75.796875 -84.375 "/></g></g></g><g fill="#ffffff" fill-opacity="1"><g transform="translate(200.420561, 487.998619)"><g><path d="M 10.203125 0.453125 C 8.929688 0.453125 7.738281 0.21875 6.625 -0.25 C 5.519531 -0.726562 4.539062 -1.390625 3.6875 -2.234375 C 2.84375 -3.078125 2.179688 -4.054688 1.703125 -5.171875 C 1.234375 -6.285156 1 -7.476562 1 -8.75 C 1 -10.019531 1.234375 -11.207031 1.703125 -12.3125 C 2.179688 -13.414062 2.84375 -14.394531 3.6875 -15.25 C 4.539062 -16.101562 5.519531 -16.765625 6.625 -17.234375 C 7.738281 -17.710938 8.929688 -17.953125 10.203125 -17.953125 C 11.460938 -17.953125 12.644531 -17.710938 13.75 -17.234375 C 14.863281 -16.765625 15.84375 -16.101562 16.6875 -15.25 C 17.539062 -14.394531 18.207031 -13.414062 18.6875 -12.3125 C 19.164062 -11.207031 19.40625 -10.019531 19.40625 -8.75 C 19.40625 -7.476562 19.164062 -6.285156 18.6875 -5.171875 C 18.207031 -4.054688 17.539062 -3.078125 16.6875 -2.234375 C 15.84375 -1.390625 14.863281 -0.726562 13.75 -0.25 C 12.644531 0.21875 11.460938 0.453125 10.203125 0.453125 Z M 9.75 -3.15625 C 10.914062 -3.15625 11.96875 -3.4375 12.90625 -4 C 13.851562 -4.5625 14.609375 -5.316406 15.171875 -6.265625 C 15.742188 -7.222656 16.03125 -8.273438 16.03125 -9.421875 C 16.03125 -10.585938 15.742188 -11.644531 15.171875 -12.59375 C 14.609375 -13.550781 13.851562 -14.3125 12.90625 -14.875 C 11.96875 -15.4375 10.914062 -15.71875 9.75 -15.71875 C 8.601562 -15.71875 7.550781 -15.4375 6.59375 -14.875 C 5.644531 -14.3125 4.882812 -13.550781 4.3125 -12.59375 C 3.75 -11.644531 3.46875 -10.585938 3.46875 -9.421875 C 3.46875 -8.273438 3.75 -7.222656 4.3125 -6.265625 C 4.882812 -5.316406 5.644531 -4.5625 6.59375 -4 C 7.550781 -3.4375 8.601562 -3.15625 9.75 -3.15625 Z M 9.75 -3.15625 "/></g></g></g><g fill="#ffffff" fill-opacity="1"><g transform="translate(220.81733, 487.998619)"><g><path d="M 21.125 -8.078125 L 21.78125 0.84375 L 18.15625 0.453125 L 18.28125 -7.03125 C 18.3125 -8.03125 18.195312 -8.78125 17.9375 -9.28125 C 17.675781 -9.789062 17.351562 -10.128906 16.96875 -10.296875 C 16.59375 -10.460938 16.226562 -10.546875 15.875 -10.546875 C 15.175781 -10.546875 14.578125 -10.375 14.078125 -10.03125 C 13.578125 -9.695312 13.203125 -9.265625 12.953125 -8.734375 C 12.710938 -8.210938 12.601562 -7.660156 12.625 -7.078125 L 13 -0.078125 L 9.375 0.34375 L 9.71875 -6.53125 C 9.757812 -7.03125 9.726562 -7.550781 9.625 -8.09375 C 9.519531 -8.632812 9.300781 -9.09375 8.96875 -9.46875 C 8.632812 -9.851562 8.113281 -10.046875 7.40625 -10.046875 C 6.800781 -10.066406 6.265625 -9.910156 5.796875 -9.578125 C 5.328125 -9.253906 4.96875 -8.832031 4.71875 -8.3125 C 4.46875 -7.800781 4.351562 -7.253906 4.375 -6.671875 L 4.546875 -0.21875 L 1.28125 0.75 L 1.25 -13.125 L 4.203125 -12.71875 L 4.28125 -10.453125 C 4.695312 -11.035156 5.21875 -11.492188 5.84375 -11.828125 C 6.46875 -12.171875 7.132812 -12.34375 7.84375 -12.34375 C 8.75 -12.34375 9.554688 -12.144531 10.265625 -11.75 C 10.972656 -11.351562 11.535156 -10.753906 11.953125 -9.953125 C 12.335938 -10.835938 12.90625 -11.546875 13.65625 -12.078125 C 14.40625 -12.609375 15.253906 -12.875 16.203125 -12.875 C 17.535156 -12.875 18.660156 -12.46875 19.578125 -11.65625 C 20.492188 -10.851562 21.007812 -9.660156 21.125 -8.078125 Z M 21.125 -8.078125 "/></g></g></g><g fill="#ffffff" fill-opacity="1"><g transform="translate(243.413608, 487.998619)"><g><path d="M 12.046875 -7.796875 L 12.546875 0.453125 L 8.96875 -0.125 L 8.96875 -0.75 C 8.632812 -0.476562 8.175781 -0.253906 7.59375 -0.078125 C 7.007812 0.0859375 6.453125 0.171875 5.921875 0.171875 C 5.078125 0.171875 4.28125 0.00390625 3.53125 -0.328125 C 2.78125 -0.671875 2.171875 -1.164062 1.703125 -1.8125 C 1.234375 -2.46875 1 -3.253906 1 -4.171875 C 1 -5.140625 1.253906 -5.941406 1.765625 -6.578125 C 2.273438 -7.222656 2.914062 -7.710938 3.6875 -8.046875 C 4.457031 -8.378906 5.226562 -8.546875 6 -8.546875 C 6.53125 -8.546875 7.070312 -8.457031 7.625 -8.28125 C 8.1875 -8.113281 8.65625 -7.878906 9.03125 -7.578125 C 8.894531 -8.554688 8.488281 -9.3125 7.8125 -9.84375 C 7.132812 -10.382812 6.390625 -10.632812 5.578125 -10.59375 C 5.109375 -10.582031 4.648438 -10.476562 4.203125 -10.28125 C 3.765625 -10.09375 3.363281 -9.804688 3 -9.421875 L 1.78125 -10.59375 C 2.34375 -11.28125 3.066406 -11.804688 3.953125 -12.171875 C 4.835938 -12.535156 5.738281 -12.710938 6.65625 -12.703125 C 7.601562 -12.703125 8.472656 -12.515625 9.265625 -12.140625 C 10.054688 -11.765625 10.703125 -11.210938 11.203125 -10.484375 C 11.703125 -9.765625 11.984375 -8.867188 12.046875 -7.796875 Z M 6.53125 -1.71875 C 7.207031 -1.71875 7.800781 -1.9375 8.3125 -2.375 C 8.820312 -2.8125 9.078125 -3.363281 9.078125 -4.03125 C 9.078125 -4.695312 8.820312 -5.234375 8.3125 -5.640625 C 7.800781 -6.046875 7.207031 -6.25 6.53125 -6.25 C 5.863281 -6.25 5.269531 -6.046875 4.75 -5.640625 C 4.226562 -5.234375 3.96875 -4.695312 3.96875 -4.03125 C 3.96875 -3.363281 4.226562 -2.8125 4.75 -2.375 C 5.269531 -1.9375 5.863281 -1.71875 6.53125 -1.71875 Z M 6.53125 -1.71875 "/></g></g></g><g fill="#ffffff" fill-opacity="1"><g transform="translate(257.211428, 487.998619)"><g><path d="M 4.671875 -0.328125 L 1.25 0.625 L 1.625 -13.171875 L 4.296875 -12.796875 L 4.34375 -11.21875 C 4.84375 -11.757812 5.445312 -12.179688 6.15625 -12.484375 C 6.863281 -12.796875 7.617188 -12.953125 8.421875 -12.953125 C 9.953125 -12.953125 11.1875 -12.546875 12.125 -11.734375 C 13.0625 -10.929688 13.601562 -9.726562 13.75 -8.125 L 14.5 0.15625 L 10.96875 0.546875 L 11.046875 -7.15625 C 11.046875 -7.5 11.003906 -7.882812 10.921875 -8.3125 C 10.835938 -8.738281 10.679688 -9.140625 10.453125 -9.515625 C 10.234375 -9.898438 9.925781 -10.21875 9.53125 -10.46875 C 9.144531 -10.71875 8.632812 -10.84375 8 -10.84375 C 7.195312 -10.84375 6.53125 -10.664062 6 -10.3125 C 5.46875 -9.957031 5.078125 -9.507812 4.828125 -8.96875 C 4.578125 -8.4375 4.453125 -7.90625 4.453125 -7.375 Z M 4.671875 -0.328125 "/></g></g></g><g fill="#ffffff" fill-opacity="1"><g transform="translate(272.958933, 487.998619)"><g><path d="M 2.671875 -11.71875 L 1 -11.65625 L 2.828125 -18.21875 L 5.703125 -17.625 Z M 2.671875 -11.71875 "/></g></g></g><g fill="#ffffff" fill-opacity="1"><g transform="translate(279.657869, 487.998619)"><g><path d="M 6.046875 0.203125 C 5.117188 0.203125 4.195312 0.0703125 3.28125 -0.1875 C 2.375 -0.445312 1.613281 -0.800781 1 -1.25 L 2.65625 -3.34375 C 2.75 -3 2.984375 -2.707031 3.359375 -2.46875 C 3.734375 -2.238281 4.171875 -2.078125 4.671875 -1.984375 C 5.171875 -1.890625 5.660156 -1.875 6.140625 -1.9375 C 6.628906 -2.007812 7.046875 -2.164062 7.390625 -2.40625 C 7.742188 -2.65625 7.945312 -2.992188 8 -3.421875 C 8.0625 -3.953125 7.941406 -4.378906 7.640625 -4.703125 C 7.347656 -5.035156 6.945312 -5.316406 6.4375 -5.546875 C 5.925781 -5.785156 5.382812 -6.007812 4.8125 -6.21875 C 4.238281 -6.4375 3.703125 -6.695312 3.203125 -7 C 2.703125 -7.300781 2.3125 -7.6875 2.03125 -8.15625 C 1.757812 -8.632812 1.675781 -9.238281 1.78125 -9.96875 C 1.875 -10.632812 2.140625 -11.179688 2.578125 -11.609375 C 3.023438 -12.035156 3.570312 -12.34375 4.21875 -12.53125 C 4.875 -12.726562 5.5625 -12.820312 6.28125 -12.8125 C 7.007812 -12.800781 7.710938 -12.707031 8.390625 -12.53125 C 9.066406 -12.363281 9.644531 -12.113281 10.125 -11.78125 L 8.59375 -10.078125 C 8 -10.609375 7.378906 -10.914062 6.734375 -11 C 6.097656 -11.082031 5.550781 -11.003906 5.09375 -10.765625 C 4.632812 -10.535156 4.367188 -10.195312 4.296875 -9.75 C 4.242188 -9.394531 4.378906 -9.109375 4.703125 -8.890625 C 5.035156 -8.679688 5.472656 -8.492188 6.015625 -8.328125 C 6.566406 -8.160156 7.15625 -7.976562 7.78125 -7.78125 C 8.40625 -7.59375 9.003906 -7.34375 9.578125 -7.03125 C 10.160156 -6.726562 10.628906 -6.328125 10.984375 -5.828125 C 11.347656 -5.335938 11.53125 -4.710938 11.53125 -3.953125 C 11.53125 -2.984375 11.269531 -2.191406 10.75 -1.578125 C 10.226562 -0.960938 9.550781 -0.507812 8.71875 -0.21875 C 7.882812 0.0625 6.992188 0.203125 6.046875 0.203125 Z M 6.046875 0.203125 "/></g></g></g><g fill="#ffffff" fill-opacity="1"><g transform="translate(296.680177, 487.998619)"><g><path d="M 9.953125 0.03125 L 6.578125 0.421875 L 7 -15.03125 L 1 -14.703125 L 1.59375 -17.5 L 15.796875 -17.65625 L 15.09375 -15.46875 L 9.75 -15.171875 Z M 9.953125 0.03125 "/></g></g></g><g fill="#ffffff" fill-opacity="1"><g transform="translate(312.152256, 487.998619)"><g><path d="M 4.5 -7.96875 L 4.71875 -0.25 L 1.25 -0.796875 L 1.546875 -12.125 L 4.375 -12.875 L 4.40625 -11.75 C 4.90625 -12.226562 5.507812 -12.597656 6.21875 -12.859375 C 6.925781 -13.117188 7.726562 -13.25 8.625 -13.25 C 9.34375 -13.25 10.003906 -13.160156 10.609375 -12.984375 C 11.222656 -12.804688 11.800781 -12.550781 12.34375 -12.21875 L 10 -9.53125 C 9.582031 -10.007812 9.171875 -10.347656 8.765625 -10.546875 C 8.359375 -10.742188 7.878906 -10.84375 7.328125 -10.84375 C 6.921875 -10.84375 6.492188 -10.738281 6.046875 -10.53125 C 5.597656 -10.320312 5.222656 -10.007812 4.921875 -9.59375 C 4.617188 -9.175781 4.476562 -8.632812 4.5 -7.96875 Z M 4.5 -7.96875 "/></g></g></g><g fill="#ffffff" fill-opacity="1"><g transform="translate(325.37516, 487.998619)"><g><path d="M 14.296875 -12.46875 L 13.90625 0.328125 L 11.078125 -0.078125 L 11.03125 -1.625 C 10.5625 -1.101562 9.984375 -0.6875 9.296875 -0.375 C 8.617188 -0.0703125 7.882812 0.078125 7.09375 0.078125 C 5.632812 0.078125 4.53125 -0.300781 3.78125 -1.0625 C 3.03125 -1.832031 2.546875 -3.003906 2.328125 -4.578125 L 1.25 -12.46875 L 5.03125 -13.078125 L 5 -5.578125 C 5 -4.628906 5.128906 -3.894531 5.390625 -3.375 C 5.648438 -2.851562 6.003906 -2.492188 6.453125 -2.296875 C 6.898438 -2.097656 7.40625 -2 7.96875 -2 C 8.84375 -2 9.554688 -2.285156 10.109375 -2.859375 C 10.671875 -3.429688 10.9375 -4.300781 10.90625 -5.46875 L 10.671875 -13.03125 Z M 14.296875 -12.46875 "/></g></g></g><g fill="#ffffff" fill-opacity="1"><g transform="translate(340.922702, 487.998619)"><g><path d="M 6.046875 0.203125 C 5.117188 0.203125 4.195312 0.0703125 3.28125 -0.1875 C 2.375 -0.445312 1.613281 -0.800781 1 -1.25 L 2.65625 -3.34375 C 2.75 -3 2.984375 -2.707031 3.359375 -2.46875 C 3.734375 -2.238281 4.171875 -2.078125 4.671875 -1.984375 C 5.171875 -1.890625 5.660156 -1.875 6.140625 -1.9375 C 6.628906 -2.007812 7.046875 -2.164062 7.390625 -2.40625 C 7.742188 -2.65625 7.945312 -2.992188 8 -3.421875 C 8.0625 -3.953125 7.941406 -4.378906 7.640625 -4.703125 C 7.347656 -5.035156 6.945312 -5.316406 6.4375 -5.546875 C 5.925781 -5.785156 5.382812 -6.007812 4.8125 -6.21875 C 4.238281 -6.4375 3.703125 -6.695312 3.203125 -7 C 2.703125 -7.300781 2.3125 -7.6875 2.03125 -8.15625 C 1.757812 -8.632812 1.675781 -9.238281 1.78125 -9.96875 C 1.875 -10.632812 2.140625 -11.179688 2.578125 -11.609375 C 3.023438 -12.035156 3.570312 -12.34375 4.21875 -12.53125 C 4.875 -12.726562 5.5625 -12.820312 6.28125 -12.8125 C 7.007812 -12.800781 7.710938 -12.707031 8.390625 -12.53125 C 9.066406 -12.363281 9.644531 -12.113281 10.125 -11.78125 L 8.59375 -10.078125 C 8 -10.609375 7.378906 -10.914062 6.734375 -11 C 6.097656 -11.082031 5.550781 -11.003906 5.09375 -10.765625 C 4.632812 -10.535156 4.367188 -10.195312 4.296875 -9.75 C 4.242188 -9.394531 4.378906 -9.109375 4.703125 -8.890625 C 5.035156 -8.679688 5.472656 -8.492188 6.015625 -8.328125 C 6.566406 -8.160156 7.15625 -7.976562 7.78125 -7.78125 C 8.40625 -7.59375 9.003906 -7.34375 9.578125 -7.03125 C 10.160156 -6.726562 10.628906 -6.328125 10.984375 -5.828125 C 11.347656 -5.335938 11.53125 -4.710938 11.53125 -3.953125 C 11.53125 -2.984375 11.269531 -2.191406 10.75 -1.578125 C 10.226562 -0.960938 9.550781 -0.507812 8.71875 -0.21875 C 7.882812 0.0625 6.992188 0.203125 6.046875 0.203125 Z M 6.046875 0.203125 "/></g></g></g><g fill="#ffffff" fill-opacity="1"><g transform="translate(353.445719, 487.998619)"><g><path d="M 9.09375 0.171875 C 7.226562 0.171875 5.734375 -0.34375 4.609375 -1.375 C 3.484375 -2.40625 2.890625 -3.851562 2.828125 -5.71875 L 2.703125 -10.03125 L 1.28125 -10.078125 L 1 -12.171875 L 2.59375 -12.28125 L 2.5 -15.546875 L 6.03125 -16.09375 L 5.921875 -12.5 L 11.53125 -12.921875 L 10.21875 -9.71875 L 5.828125 -9.90625 L 5.671875 -5.46875 C 5.660156 -4.65625 5.816406 -4 6.140625 -3.5 C 6.460938 -3 6.878906 -2.648438 7.390625 -2.453125 C 7.910156 -2.253906 8.445312 -2.1875 9 -2.25 C 9.550781 -2.3125 10.039062 -2.488281 10.46875 -2.78125 L 11.90625 -0.46875 C 11.4375 -0.257812 10.953125 -0.101562 10.453125 0 C 9.960938 0.113281 9.507812 0.171875 9.09375 0.171875 Z M 9.09375 0.171875 "/></g></g></g><g fill="#ffffff" fill-opacity="1"><g transform="translate(366.343679, 487.998619)"><g><path d="M 7.53125 0.328125 C 6.320312 0.328125 5.21875 0.0351562 4.21875 -0.546875 C 3.21875 -1.128906 2.421875 -1.914062 1.828125 -2.90625 C 1.242188 -3.90625 0.953125 -5.007812 0.953125 -6.21875 C 0.953125 -7.132812 1.117188 -7.992188 1.453125 -8.796875 C 1.796875 -9.597656 2.269531 -10.300781 2.875 -10.90625 C 3.476562 -11.519531 4.175781 -11.992188 4.96875 -12.328125 C 5.769531 -12.671875 6.625 -12.84375 7.53125 -12.84375 C 8.445312 -12.84375 9.300781 -12.671875 10.09375 -12.328125 C 10.882812 -11.992188 11.582031 -11.519531 12.1875 -10.90625 C 12.789062 -10.300781 13.265625 -9.597656 13.609375 -8.796875 C 13.953125 -7.992188 14.125 -7.132812 14.125 -6.21875 C 14.125 -5.851562 14.09375 -5.515625 14.03125 -5.203125 L 4.53125 -3.40625 C 4.90625 -2.90625 5.382812 -2.5 5.96875 -2.1875 C 6.550781 -1.875 7.1875 -1.71875 7.875 -1.71875 C 8.457031 -1.71875 9.003906 -1.832031 9.515625 -2.0625 C 10.023438 -2.289062 10.460938 -2.585938 10.828125 -2.953125 L 12.21875 -1.78125 C 11.625 -1.113281 10.929688 -0.59375 10.140625 -0.21875 C 9.359375 0.144531 8.488281 0.328125 7.53125 0.328125 Z M 3.84375 -5.15625 L 11.5 -7.5 C 11.1875 -8.144531 10.703125 -8.671875 10.046875 -9.078125 C 9.398438 -9.492188 8.675781 -9.703125 7.875 -9.703125 C 7.09375 -9.703125 6.363281 -9.488281 5.6875 -9.0625 C 5.007812 -8.632812 4.488281 -8.070312 4.125 -7.375 C 3.769531 -6.6875 3.675781 -5.945312 3.84375 -5.15625 Z M 3.84375 -5.15625 "/></g></g></g><g fill="#ffffff" fill-opacity="1"><g transform="translate(381.391297, 487.998619)"><g><path d="M 15.375 -0.25 L 11.875 0.25 L 11.921875 -1.5 C 11.359375 -0.96875 10.695312 -0.539062 9.9375 -0.21875 C 9.175781 0.09375 8.375 0.25 7.53125 0.25 C 6.320312 0.25 5.222656 -0.0390625 4.234375 -0.625 C 3.242188 -1.207031 2.457031 -1.992188 1.875 -2.984375 C 1.289062 -3.972656 1 -5.070312 1 -6.28125 C 1 -7.476562 1.289062 -8.566406 1.875 -9.546875 C 2.457031 -10.535156 3.242188 -11.320312 4.234375 -11.90625 C 5.222656 -12.5 6.320312 -12.796875 7.53125 -12.796875 C 8.425781 -12.796875 9.269531 -12.617188 10.0625 -12.265625 C 10.851562 -11.921875 11.53125 -11.457031 12.09375 -10.875 L 12.25 -18.84375 L 15.03125 -18.53125 Z M 7.875 -1.578125 C 8.644531 -1.578125 9.335938 -1.757812 9.953125 -2.125 C 10.566406 -2.488281 11.054688 -2.972656 11.421875 -3.578125 C 11.785156 -4.191406 11.96875 -4.859375 11.96875 -5.578125 C 11.96875 -6.328125 11.785156 -7 11.421875 -7.59375 C 11.054688 -8.195312 10.566406 -8.675781 9.953125 -9.03125 C 9.335938 -9.394531 8.644531 -9.578125 7.875 -9.578125 C 7.125 -9.578125 6.441406 -9.394531 5.828125 -9.03125 C 5.210938 -8.675781 4.71875 -8.195312 4.34375 -7.59375 C 3.976562 -7 3.796875 -6.328125 3.796875 -5.578125 C 3.796875 -4.859375 3.976562 -4.191406 4.34375 -3.578125 C 4.71875 -2.972656 5.210938 -2.488281 5.828125 -2.125 C 6.441406 -1.757812 7.125 -1.578125 7.875 -1.578125 Z M 7.875 -1.578125 "/></g></g></g><g fill="#ffffff" fill-opacity="1"><g transform="translate(402.512958, 487.998619)"><g><path d="M 10.203125 0.453125 C 8.929688 0.453125 7.738281 0.21875 6.625 -0.25 C 5.519531 -0.726562 4.539062 -1.390625 3.6875 -2.234375 C 2.84375 -3.078125 2.179688 -4.054688 1.703125 -5.171875 C 1.234375 -6.285156 1 -7.476562 1 -8.75 C 1 -10.019531 1.234375 -11.207031 1.703125 -12.3125 C 2.179688 -13.414062 2.84375 -14.394531 3.6875 -15.25 C 4.539062 -16.101562 5.519531 -16.765625 6.625 -17.234375 C 7.738281 -17.710938 8.929688 -17.953125 10.203125 -17.953125 C 11.453125 -17.953125 12.617188 -17.722656 13.703125 -17.265625 C 14.785156 -16.804688 15.742188 -16.171875 16.578125 -15.359375 C 17.421875 -14.554688 18.085938 -13.617188 18.578125 -12.546875 L 16.296875 -11.625 C 15.734375 -12.507812 14.984375 -13.210938 14.046875 -13.734375 C 13.117188 -14.265625 12.101562 -14.53125 11 -14.53125 C 9.832031 -14.53125 8.765625 -14.238281 7.796875 -13.65625 C 6.828125 -13.082031 6.054688 -12.316406 5.484375 -11.359375 C 4.910156 -10.398438 4.625 -9.335938 4.625 -8.171875 C 4.625 -7.003906 4.910156 -5.9375 5.484375 -4.96875 C 6.054688 -4.007812 6.828125 -3.242188 7.796875 -2.671875 C 8.765625 -2.109375 9.832031 -1.828125 11 -1.828125 C 12.113281 -1.828125 13.132812 -2.085938 14.0625 -2.609375 C 14.988281 -3.140625 15.734375 -3.835938 16.296875 -4.703125 L 18.125 -4.046875 C 17.320312 -2.703125 16.21875 -1.613281 14.8125 -0.78125 C 13.414062 0.0390625 11.878906 0.453125 10.203125 0.453125 Z M 10.203125 0.453125 "/></g></g></g><g fill="#ffffff" fill-opacity="1"><g transform="translate(422.084872, 487.998619)"><g><path d="M 12.046875 -7.796875 L 12.546875 0.453125 L 8.96875 -0.125 L 8.96875 -0.75 C 8.632812 -0.476562 8.175781 -0.253906 7.59375 -0.078125 C 7.007812 0.0859375 6.453125 0.171875 5.921875 0.171875 C 5.078125 0.171875 4.28125 0.00390625 3.53125 -0.328125 C 2.78125 -0.671875 2.171875 -1.164062 1.703125 -1.8125 C 1.234375 -2.46875 1 -3.253906 1 -4.171875 C 1 -5.140625 1.253906 -5.941406 1.765625 -6.578125 C 2.273438 -7.222656 2.914062 -7.710938 3.6875 -8.046875 C 4.457031 -8.378906 5.226562 -8.546875 6 -8.546875 C 6.53125 -8.546875 7.070312 -8.457031 7.625 -8.28125 C 8.1875 -8.113281 8.65625 -7.878906 9.03125 -7.578125 C 8.894531 -8.554688 8.488281 -9.3125 7.8125 -9.84375 C 7.132812 -10.382812 6.390625 -10.632812 5.578125 -10.59375 C 5.109375 -10.582031 4.648438 -10.476562 4.203125 -10.28125 C 3.765625 -10.09375 3.363281 -9.804688 3 -9.421875 L 1.78125 -10.59375 C 2.34375 -11.28125 3.066406 -11.804688 3.953125 -12.171875 C 4.835938 -12.535156 5.738281 -12.710938 6.65625 -12.703125 C 7.601562 -12.703125 8.472656 -12.515625 9.265625 -12.140625 C 10.054688 -11.765625 10.703125 -11.210938 11.203125 -10.484375 C 11.703125 -9.765625 11.984375 -8.867188 12.046875 -7.796875 Z M 6.53125 -1.71875 C 7.207031 -1.71875 7.800781 -1.9375 8.3125 -2.375 C 8.820312 -2.8125 9.078125 -3.363281 9.078125 -4.03125 C 9.078125 -4.695312 8.820312 -5.234375 8.3125 -5.640625 C 7.800781 -6.046875 7.207031 -6.25 6.53125 -6.25 C 5.863281 -6.25 5.269531 -6.046875 4.75 -5.640625 C 4.226562 -5.234375 3.96875 -4.695312 3.96875 -4.03125 C 3.96875 -3.363281 4.226562 -2.8125 4.75 -2.375 C 5.269531 -1.9375 5.863281 -1.71875 6.53125 -1.71875 Z M 6.53125 -1.71875 "/></g></g></g><g fill="#ffffff" fill-opacity="1"><g transform="translate(435.882692, 487.998619)"><g><path d="M 4.5 -7.96875 L 4.71875 -0.25 L 1.25 -0.796875 L 1.546875 -12.125 L 4.375 -12.875 L 4.40625 -11.75 C 4.90625 -12.226562 5.507812 -12.597656 6.21875 -12.859375 C 6.925781 -13.117188 7.726562 -13.25 8.625 -13.25 C 9.34375 -13.25 10.003906 -13.160156 10.609375 -12.984375 C 11.222656 -12.804688 11.800781 -12.550781 12.34375 -12.21875 L 10 -9.53125 C 9.582031 -10.007812 9.171875 -10.347656 8.765625 -10.546875 C 8.359375 -10.742188 7.878906 -10.84375 7.328125 -10.84375 C 6.921875 -10.84375 6.492188 -10.738281 6.046875 -10.53125 C 5.597656 -10.320312 5.222656 -10.007812 4.921875 -9.59375 C 4.617188 -9.175781 4.476562 -8.632812 4.5 -7.96875 Z M 4.5 -7.96875 "/></g></g></g><g fill="#ffffff" fill-opacity="1"><g transform="translate(453.604875, 487.998619)"><g><path d="M 19.453125 -17.46875 L 19.90625 0.875 L 16.296875 0 L 16.59375 -12.53125 L 10.421875 0.21875 L 8.21875 -0.328125 L 3.375 -13.625 L 3.53125 -0.21875 L 1.25 0.46875 L 1.59375 -17.96875 L 4.96875 -17.65625 L 10.375 -4.578125 L 16.546875 -17.78125 Z M 19.453125 -17.46875 "/></g></g></g><g fill="#ffffff" fill-opacity="1"><g transform="translate(474.751541, 487.998619)"><g><path d="M 12.046875 -7.796875 L 12.546875 0.453125 L 8.96875 -0.125 L 8.96875 -0.75 C 8.632812 -0.476562 8.175781 -0.253906 7.59375 -0.078125 C 7.007812 0.0859375 6.453125 0.171875 5.921875 0.171875 C 5.078125 0.171875 4.28125 0.00390625 3.53125 -0.328125 C 2.78125 -0.671875 2.171875 -1.164062 1.703125 -1.8125 C 1.234375 -2.46875 1 -3.253906 1 -4.171875 C 1 -5.140625 1.253906 -5.941406 1.765625 -6.578125 C 2.273438 -7.222656 2.914062 -7.710938 3.6875 -8.046875 C 4.457031 -8.378906 5.226562 -8.546875 6 -8.546875 C 6.53125 -8.546875 7.070312 -8.457031 7.625 -8.28125 C 8.1875 -8.113281 8.65625 -7.878906 9.03125 -7.578125 C 8.894531 -8.554688 8.488281 -9.3125 7.8125 -9.84375 C 7.132812 -10.382812 6.390625 -10.632812 5.578125 -10.59375 C 5.109375 -10.582031 4.648438 -10.476562 4.203125 -10.28125 C 3.765625 -10.09375 3.363281 -9.804688 3 -9.421875 L 1.78125 -10.59375 C 2.34375 -11.28125 3.066406 -11.804688 3.953125 -12.171875 C 4.835938 -12.535156 5.738281 -12.710938 6.65625 -12.703125 C 7.601562 -12.703125 8.472656 -12.515625 9.265625 -12.140625 C 10.054688 -11.765625 10.703125 -11.210938 11.203125 -10.484375 C 11.703125 -9.765625 11.984375 -8.867188 12.046875 -7.796875 Z M 6.53125 -1.71875 C 7.207031 -1.71875 7.800781 -1.9375 8.3125 -2.375 C 8.820312 -2.8125 9.078125 -3.363281 9.078125 -4.03125 C 9.078125 -4.695312 8.820312 -5.234375 8.3125 -5.640625 C 7.800781 -6.046875 7.207031 -6.25 6.53125 -6.25 C 5.863281 -6.25 5.269531 -6.046875 4.75 -5.640625 C 4.226562 -5.234375 3.96875 -4.695312 3.96875 -4.03125 C 3.96875 -3.363281 4.226562 -2.8125 4.75 -2.375 C 5.269531 -1.9375 5.863281 -1.71875 6.53125 -1.71875 Z M 6.53125 -1.71875 "/></g></g></g><g fill="#ffffff" fill-opacity="1"><g transform="translate(488.549362, 487.998619)"><g><path d="M 4.5 -7.96875 L 4.71875 -0.25 L 1.25 -0.796875 L 1.546875 -12.125 L 4.375 -12.875 L 4.40625 -11.75 C 4.90625 -12.226562 5.507812 -12.597656 6.21875 -12.859375 C 6.925781 -13.117188 7.726562 -13.25 8.625 -13.25 C 9.34375 -13.25 10.003906 -13.160156 10.609375 -12.984375 C 11.222656 -12.804688 11.800781 -12.550781 12.34375 -12.21875 L 10 -9.53125 C 9.582031 -10.007812 9.171875 -10.347656 8.765625 -10.546875 C 8.359375 -10.742188 7.878906 -10.84375 7.328125 -10.84375 C 6.921875 -10.84375 6.492188 -10.738281 6.046875 -10.53125 C 5.597656 -10.320312 5.222656 -10.007812 4.921875 -9.59375 C 4.617188 -9.175781 4.476562 -8.632812 4.5 -7.96875 Z M 4.5 -7.96875 "/></g></g></g><g fill="#ffffff" fill-opacity="1"><g transform="translate(501.772254, 487.998619)"><g><path d="M 13.546875 -0.34375 L 9.828125 0.421875 L 5.921875 -5.25 L 4.59375 -3.875 L 4.671875 -0.03125 L 1.25 -0.75 L 1.53125 -19.21875 L 4.34375 -18.84375 L 4.546875 -6.671875 L 10 -13.125 L 12.59375 -12.46875 L 7.46875 -7.046875 Z M 13.546875 -0.34375 "/></g></g></g><g fill="#ffffff" fill-opacity="1"><g transform="translate(515.319747, 487.998619)"><g><path d="M 7.53125 0.328125 C 6.320312 0.328125 5.21875 0.0351562 4.21875 -0.546875 C 3.21875 -1.128906 2.421875 -1.914062 1.828125 -2.90625 C 1.242188 -3.90625 0.953125 -5.007812 0.953125 -6.21875 C 0.953125 -7.132812 1.117188 -7.992188 1.453125 -8.796875 C 1.796875 -9.597656 2.269531 -10.300781 2.875 -10.90625 C 3.476562 -11.519531 4.175781 -11.992188 4.96875 -12.328125 C 5.769531 -12.671875 6.625 -12.84375 7.53125 -12.84375 C 8.445312 -12.84375 9.300781 -12.671875 10.09375 -12.328125 C 10.882812 -11.992188 11.582031 -11.519531 12.1875 -10.90625 C 12.789062 -10.300781 13.265625 -9.597656 13.609375 -8.796875 C 13.953125 -7.992188 14.125 -7.132812 14.125 -6.21875 C 14.125 -5.851562 14.09375 -5.515625 14.03125 -5.203125 L 4.53125 -3.40625 C 4.90625 -2.90625 5.382812 -2.5 5.96875 -2.1875 C 6.550781 -1.875 7.1875 -1.71875 7.875 -1.71875 C 8.457031 -1.71875 9.003906 -1.832031 9.515625 -2.0625 C 10.023438 -2.289062 10.460938 -2.585938 10.828125 -2.953125 L 12.21875 -1.78125 C 11.625 -1.113281 10.929688 -0.59375 10.140625 -0.21875 C 9.359375 0.144531 8.488281 0.328125 7.53125 0.328125 Z M 3.84375 -5.15625 L 11.5 -7.5 C 11.1875 -8.144531 10.703125 -8.671875 10.046875 -9.078125 C 9.398438 -9.492188 8.675781 -9.703125 7.875 -9.703125 C 7.09375 -9.703125 6.363281 -9.488281 5.6875 -9.0625 C 5.007812 -8.632812 4.488281 -8.070312 4.125 -7.375 C 3.769531 -6.6875 3.675781 -5.945312 3.84375 -5.15625 Z M 3.84375 -5.15625 "/></g></g></g><g fill="#ffffff" fill-opacity="1"><g transform="translate(530.367354, 487.998619)"><g><path d="M 9.09375 0.171875 C 7.226562 0.171875 5.734375 -0.34375 4.609375 -1.375 C 3.484375 -2.40625 2.890625 -3.851562 2.828125 -5.71875 L 2.703125 -10.03125 L 1.28125 -10.078125 L 1 -12.171875 L 2.59375 -12.28125 L 2.5 -15.546875 L 6.03125 -16.09375 L 5.921875 -12.5 L 11.53125 -12.921875 L 10.21875 -9.71875 L 5.828125 -9.90625 L 5.671875 -5.46875 C 5.660156 -4.65625 5.816406 -4 6.140625 -3.5 C 6.460938 -3 6.878906 -2.648438 7.390625 -2.453125 C 7.910156 -2.253906 8.445312 -2.1875 9 -2.25 C 9.550781 -2.3125 10.039062 -2.488281 10.46875 -2.78125 L 11.90625 -0.46875 C 11.4375 -0.257812 10.953125 -0.101562 10.453125 0 C 9.960938 0.113281 9.507812 0.171875 9.09375 0.171875 Z M 9.09375 0.171875 "/></g></g></g><g fill="#ffffff" fill-opacity="1"><g transform="translate(543.265325, 487.998619)"><g><path d="M 4.546875 5.578125 L 1.625 6 L 1.25 -13.40625 L 4.90625 -13 L 4.875 -11.21875 C 5.457031 -11.757812 6.128906 -12.179688 6.890625 -12.484375 C 7.660156 -12.796875 8.476562 -12.953125 9.34375 -12.953125 C 10.28125 -12.953125 11.148438 -12.773438 11.953125 -12.421875 C 12.765625 -12.078125 13.476562 -11.59375 14.09375 -10.96875 C 14.71875 -10.34375 15.203125 -9.625 15.546875 -8.8125 C 15.898438 -8 16.078125 -7.128906 16.078125 -6.203125 C 16.078125 -5.265625 15.898438 -4.382812 15.546875 -3.5625 C 15.203125 -2.75 14.71875 -2.035156 14.09375 -1.421875 C 13.476562 -0.804688 12.765625 -0.328125 11.953125 0.015625 C 11.148438 0.367188 10.28125 0.546875 9.34375 0.546875 C 8.425781 0.546875 7.570312 0.375 6.78125 0.03125 C 5.988281 -0.300781 5.285156 -0.757812 4.671875 -1.34375 Z M 8.546875 -2.921875 C 9.296875 -2.921875 9.976562 -3.097656 10.59375 -3.453125 C 11.21875 -3.816406 11.710938 -4.304688 12.078125 -4.921875 C 12.441406 -5.535156 12.625 -6.210938 12.625 -6.953125 C 12.625 -7.710938 12.441406 -8.394531 12.078125 -9 C 11.710938 -9.613281 11.21875 -10.101562 10.59375 -10.46875 C 9.976562 -10.84375 9.296875 -11.03125 8.546875 -11.03125 C 7.796875 -11.03125 7.113281 -10.84375 6.5 -10.46875 C 5.882812 -10.101562 5.390625 -9.613281 5.015625 -9 C 4.648438 -8.394531 4.46875 -7.710938 4.46875 -6.953125 C 4.46875 -6.210938 4.648438 -5.535156 5.015625 -4.921875 C 5.390625 -4.304688 5.882812 -3.816406 6.5 -3.453125 C 7.113281 -3.097656 7.796875 -2.921875 8.546875 -2.921875 Z M 8.546875 -2.921875 "/></g></g></g><g fill="#ffffff" fill-opacity="1"><g transform="translate(560.337621, 487.998619)"><g><path d="M 4.71875 -0.03125 L 1.25 0.921875 L 1.71875 -18.671875 L 4.328125 -19.046875 Z M 4.71875 -0.03125 "/></g></g></g><g fill="#ffffff" fill-opacity="1"><g transform="translate(566.311688, 487.998619)"><g><path d="M 12.046875 -7.796875 L 12.546875 0.453125 L 8.96875 -0.125 L 8.96875 -0.75 C 8.632812 -0.476562 8.175781 -0.253906 7.59375 -0.078125 C 7.007812 0.0859375 6.453125 0.171875 5.921875 0.171875 C 5.078125 0.171875 4.28125 0.00390625 3.53125 -0.328125 C 2.78125 -0.671875 2.171875 -1.164062 1.703125 -1.8125 C 1.234375 -2.46875 1 -3.253906 1 -4.171875 C 1 -5.140625 1.253906 -5.941406 1.765625 -6.578125 C 2.273438 -7.222656 2.914062 -7.710938 3.6875 -8.046875 C 4.457031 -8.378906 5.226562 -8.546875 6 -8.546875 C 6.53125 -8.546875 7.070312 -8.457031 7.625 -8.28125 C 8.1875 -8.113281 8.65625 -7.878906 9.03125 -7.578125 C 8.894531 -8.554688 8.488281 -9.3125 7.8125 -9.84375 C 7.132812 -10.382812 6.390625 -10.632812 5.578125 -10.59375 C 5.109375 -10.582031 4.648438 -10.476562 4.203125 -10.28125 C 3.765625 -10.09375 3.363281 -9.804688 3 -9.421875 L 1.78125 -10.59375 C 2.34375 -11.28125 3.066406 -11.804688 3.953125 -12.171875 C 4.835938 -12.535156 5.738281 -12.710938 6.65625 -12.703125 C 7.601562 -12.703125 8.472656 -12.515625 9.265625 -12.140625 C 10.054688 -11.765625 10.703125 -11.210938 11.203125 -10.484375 C 11.703125 -9.765625 11.984375 -8.867188 12.046875 -7.796875 Z M 6.53125 -1.71875 C 7.207031 -1.71875 7.800781 -1.9375 8.3125 -2.375 C 8.820312 -2.8125 9.078125 -3.363281 9.078125 -4.03125 C 9.078125 -4.695312 8.820312 -5.234375 8.3125 -5.640625 C 7.800781 -6.046875 7.207031 -6.25 6.53125 -6.25 C 5.863281 -6.25 5.269531 -6.046875 4.75 -5.640625 C 4.226562 -5.234375 3.96875 -4.695312 3.96875 -4.03125 C 3.96875 -3.363281 4.226562 -2.8125 4.75 -2.375 C 5.269531 -1.9375 5.863281 -1.71875 6.53125 -1.71875 Z M 6.53125 -1.71875 "/></g></g></g><g fill="#ffffff" fill-opacity="1"><g transform="translate(579.734417, 487.998619)"><g><path d="M 7.671875 0.328125 C 6.753906 0.328125 5.890625 0.15625 5.078125 -0.1875 C 4.273438 -0.539062 3.566406 -1.019531 2.953125 -1.625 C 2.347656 -2.238281 1.867188 -2.953125 1.515625 -3.765625 C 1.171875 -4.585938 1 -5.457031 1 -6.375 C 1 -7.289062 1.171875 -8.148438 1.515625 -8.953125 C 1.867188 -9.765625 2.347656 -10.472656 2.953125 -11.078125 C 3.566406 -11.691406 4.273438 -12.171875 5.078125 -12.515625 C 5.890625 -12.867188 6.753906 -13.046875 7.671875 -13.046875 C 8.992188 -13.046875 10.179688 -12.695312 11.234375 -12 C 12.296875 -11.3125 13.101562 -10.421875 13.65625 -9.328125 L 11.796875 -8.078125 C 11.453125 -8.660156 10.984375 -9.132812 10.390625 -9.5 C 9.796875 -9.863281 9.132812 -10.046875 8.40625 -10.046875 C 7.6875 -10.046875 7.023438 -9.867188 6.421875 -9.515625 C 5.828125 -9.171875 5.347656 -8.695312 4.984375 -8.09375 C 4.628906 -7.5 4.453125 -6.832031 4.453125 -6.09375 C 4.453125 -5.382812 4.628906 -4.734375 4.984375 -4.140625 C 5.347656 -3.546875 5.828125 -3.070312 6.421875 -2.71875 C 7.023438 -2.375 7.6875 -2.203125 8.40625 -2.203125 C 9.132812 -2.203125 9.796875 -2.378906 10.390625 -2.734375 C 10.992188 -3.097656 11.460938 -3.578125 11.796875 -4.171875 L 13.78125 -3.65625 C 13.257812 -2.488281 12.453125 -1.53125 11.359375 -0.78125 C 10.265625 -0.0390625 9.035156 0.328125 7.671875 0.328125 Z M 7.671875 0.328125 "/></g></g></g><g fill="#ffffff" fill-opacity="1"><g transform="translate(594.507091, 487.998619)"><g><path d="M 7.53125 0.328125 C 6.320312 0.328125 5.21875 0.0351562 4.21875 -0.546875 C 3.21875 -1.128906 2.421875 -1.914062 1.828125 -2.90625 C 1.242188 -3.90625 0.953125 -5.007812 0.953125 -6.21875 C 0.953125 -7.132812 1.117188 -7.992188 1.453125 -8.796875 C 1.796875 -9.597656 2.269531 -10.300781 2.875 -10.90625 C 3.476562 -11.519531 4.175781 -11.992188 4.96875 -12.328125 C 5.769531 -12.671875 6.625 -12.84375 7.53125 -12.84375 C 8.445312 -12.84375 9.300781 -12.671875 10.09375 -12.328125 C 10.882812 -11.992188 11.582031 -11.519531 12.1875 -10.90625 C 12.789062 -10.300781 13.265625 -9.597656 13.609375 -8.796875 C 13.953125 -7.992188 14.125 -7.132812 14.125 -6.21875 C 14.125 -5.851562 14.09375 -5.515625 14.03125 -5.203125 L 4.53125 -3.40625 C 4.90625 -2.90625 5.382812 -2.5 5.96875 -2.1875 C 6.550781 -1.875 7.1875 -1.71875 7.875 -1.71875 C 8.457031 -1.71875 9.003906 -1.832031 9.515625 -2.0625 C 10.023438 -2.289062 10.460938 -2.585938 10.828125 -2.953125 L 12.21875 -1.78125 C 11.625 -1.113281 10.929688 -0.59375 10.140625 -0.21875 C 9.359375 0.144531 8.488281 0.328125 7.53125 0.328125 Z M 3.84375 -5.15625 L 11.5 -7.5 C 11.1875 -8.144531 10.703125 -8.671875 10.046875 -9.078125 C 9.398438 -9.492188 8.675781 -9.703125 7.875 -9.703125 C 7.09375 -9.703125 6.363281 -9.488281 5.6875 -9.0625 C 5.007812 -8.632812 4.488281 -8.070312 4.125 -7.375 C 3.769531 -6.6875 3.675781 -5.945312 3.84375 -5.15625 Z M 3.84375 -5.15625 "/></g></g></g></svg>